<svg xmlns="http://www.w3.org/2000/svg" height="48" viewBox="0 96 960 960" width="48"><path d="M457 600q51 52 115 88t138 55q-39 55-99.5 86.5T481 861q-119.432 0-202.216-82.784T196 576q0-69 31.5-129.5T314 347q19 74 55 138t88 115Zm285 88q-24-4-47.052-10.6Q671.897 670.8 652 660q9.8-18.92 16.4-39.227Q675 600.467 675 576q0-80.605-57.198-137.802Q560.605 381 480 381q-24.467 0-44.773 6.1Q414.92 393.2 396 404q-10-21-16.5-42T369 315q25.6-11 53.1-18t58.9-7q119.432 0 202.716 83.284T767 576q0 31.4-7 58.9T742 688ZM435 197V80h91v117h-91Zm0 874V954h91v117h-91Zm345-729-65-66 83-83 65 65-83 84ZM162 958l-65-64 83-84 65 66-83 82Zm697-337v-91h117v91H859Zm-874 0v-91h117v91H-15Zm813 338-83-82 66-65 82 82-65 65ZM180 341l-82-83 64-65 84 83-66 65Z"/></svg>